<svg width="64" height="64" xmlns="http://www.w3.org/2000/svg">
  <g fill="none" fill-rule="evenodd">
    <rect fill="#FFF" width="64" height="64" rx="14"/>
    <path d="M48.156 35.097h3.162l3.554-6.156H48.156v.003a8.69 8.69 0 0 0-3.81.96c-1.655.855-3.482 3.388-3.718 3.798a47.06 47.06 0 0 0-.318.532l-.22.373-.274.473A349.051 349.051 0 0 0 37.1 39.8l-.295.523-1.582 2.805.009.003-.428.746c-.944 1.262-2.53 2.014-4.01.955-1.477-1.058-1.32-2.863-.616-4.2l.046-.088c1.356-2.453 2.736-4.892 4.115-7.332l.006.002 1.036-1.836.476-.844h-.01l2.189-3.882c2.203-3.906 2.071-8.982-1.506-12.1-2.623-2.285-6.407-2.65-9.477-1.067-2.133 1.1-3.097 2.723-4.256 4.702a501.96 501.96 0 0 0-1.621 2.793c-.179.294-.357.597-.54.91a363.52 363.52 0 0 0-2.883 5.005l-.399.705c-.588.714-1.387 1.23-2.245 1.285v-.003H12.17l-3.555 6.156H15.11v-.003a8.687 8.687 0 0 0 3.81-.961c1.656-.854 2.607-2.024 3.492-3.43.183-.29.362-.59.545-.9l.218-.372.275-.473c.214-.365.425-.731.637-1.097a315.282 315.282 0 0 0 1.972-3.435l.107-.189.295-.523 1.581-2.804-.008-.003.176-.308c.021-.035.041-.07.063-.104.903-1.443 2.626-2.412 4.225-1.267 1.477 1.057 1.32 2.862.616 4.2l-.046.087c-1.356 2.453-2.736 4.892-4.115 7.332h.01l-.201.358-.006-.002-.132.234-3.368 5.97c-2.204 3.906-2.072 8.983 1.506 12.1 2.623 2.285 6.407 2.65 9.477 1.067 1.796-.926 2.763-2.224 3.716-3.792.179-.294.357-.597.54-.91a362.602 362.602 0 0 0 2.936-5.099c.701-1.206 1.396-2.415 2.082-3.63l.072-.129.355-.61c.586-.697 1.372-1.197 2.216-1.251v.003z" fill="#E40050"/>
  </g>
</svg>
