<svg width="179" height="21" xmlns="http://www.w3.org/2000/svg">
    <g fill-rule="nonzero" fill="none">
        <path d="M7.23 7.949l-.648.621s-.727-.927-2.16-.927c-1.7 0-2.863 1.504-2.863 3.189s1.163 3.189 2.864 3.189c1.42 0 2.26-1.052 2.26-1.052l.637.656s-1.063 1.3-2.897 1.3c-2.26 0-3.871-1.809-3.871-4.093s1.61-4.093 3.87-4.093c1.835 0 2.809 1.21 2.809 1.21zm3.42 2.702c1.05 0 1.621-.565 1.621-1.436 0-.87-.57-1.436-1.622-1.436H9.497v2.872h1.152zM8.556 14.79V6.874h2.036c1.555 0 2.618.928 2.618 2.341 0 1.877-1.69 2.228-1.913 2.262l2.17 3.313h-1.13l-2.114-3.234h-.727v3.234h-.94zm7.222-7.011v2.499h3.312v.905h-3.312v2.702h3.648v.905H14.84V6.874h4.52v.905h-3.58zm4.415 7.01l3.076-7.915h.873l3.054 7.916h-.984l-.817-2.137h-3.379l-.816 2.137h-1.007zm3.513-6.558l-1.343 3.517h2.685L23.707 8.23zm5.69 6.559V7.779h-2.25v-.905h5.438v.905h-2.249v7.01h-.94zm5.297-7.011v2.499h3.312v.905h-3.312v2.702h3.647v.905h-4.586V6.874h4.52v.905h-3.58zm7.491-.905c2.428 0 3.871 1.674 3.871 3.958 0 2.284-1.443 3.958-3.87 3.958h-2.25V6.874h2.25zm-.056 7.011c1.913 0 2.92-1.368 2.92-3.053 0-1.685-1.007-3.053-2.92-3.053h-1.253v6.106h1.253zm8.75.905V6.874h2.059c1.611 0 2.517.837 2.517 2.16 0 1.074-.772 1.527-.884 1.55.112.022 1.31.372 1.31 1.944 0 1.38-1.008 2.262-2.551 2.262h-2.45zm2.45-.905c1.12 0 1.612-.61 1.612-1.357 0-.746-.493-1.357-1.611-1.357h-1.51v2.714h1.51zm-1.51-3.596h1.276c.883 0 1.42-.486 1.42-1.255 0-.769-.537-1.255-1.42-1.255h-1.276v2.51zm7.312 4.5V11.68l-2.64-4.806h1.051l2.104 3.89 2.07-3.89h.995l-2.64 4.806v3.11h-.94z" fill="#1A1A00"/>
        <path d="M76.903.777c-.495 0-.98.038-1.455.11V4.12h.002v6.712h2.892V4.115c3.003.678 5.252 3.43 5.252 6.724 0 3.802-2.996 6.884-6.69 6.884-3.696 0-6.691-3.082-6.691-6.884 0-1.899.747-3.616 1.955-4.861L69.982 3.73a10.178 10.178 0 0 0-2.857 7.108c0 5.557 4.378 10.061 9.778 10.061s9.778-4.504 9.778-10.061S82.303.777 76.903.777" fill="#3C3"/>
        <path d="M101.179 10.839a5.15 5.15 0 0 0-.054-.74H96.35v1.471h3.225c-.325 1.528-1.647 2.671-3.229 2.671-1.826 0-3.306-1.523-3.306-3.402 0-1.88 1.48-3.403 3.306-3.403.912 0 1.737.38 2.335.995l1.08-1.112a4.75 4.75 0 0 0-3.415-1.453c-2.669 0-4.832 2.226-4.832 4.973 0 2.746 2.163 4.972 4.832 4.972 2.67 0 4.833-2.226 4.833-4.972M106.779 10.797c1.178 0 1.927-.633 1.927-1.611v-.028c0-1.033-.722-1.598-1.94-1.598h-2.397v3.237h2.41zm-4.056-4.78h4.176c1.178 0 2.102.359 2.704.965.496.523.777 1.24.777 2.08v.027c0 1.584-.924 2.535-2.222 2.92l2.53 3.65h-1.955l-2.302-3.36h-2.062v3.36h-1.646V6.018zM112.199 6.017h6.947v1.516h-5.3v2.507h4.698v1.529h-4.699v2.575h5.368v1.516h-7.014zM120.965 6.017h6.948v1.516h-5.301v2.507h4.698v1.529h-4.698v2.575h5.368v1.516h-7.015zM129.732 6.017h1.526l5.02 6.667V6.017h1.62v9.643h-1.38l-5.166-6.86v6.86h-1.62zM139.692 6.017h1.646v8.1h4.926v1.543h-6.572zM147.856 15.66h1.647V6.017h-1.647zM162.097 6.017h1.646v4.009h4.471V6.017h1.647v9.643h-1.647v-4.064h-4.47v4.064h-1.647zM174.357 7.588h-2.985v-1.57h7.617v1.57h-2.985v8.072h-1.647zM160.55 10.827c0-.252-.018-.499-.053-.74h-1.552v.001h-3.224v1.47h3.226c-.326 1.528-1.648 2.672-3.23 2.672-1.826 0-3.306-1.524-3.306-3.403 0-1.88 1.48-3.403 3.306-3.403.912 0 1.737.38 2.335.995l1.08-1.112a4.75 4.75 0 0 0-3.415-1.453c-2.669 0-4.832 2.227-4.832 4.973s2.163 4.973 4.832 4.973c2.67 0 4.833-2.227 4.833-4.973" fill="#1A1A00"/>
    </g>
</svg>
