<svg xmlns="http://www.w3.org/2000/svg" width="75" height="75"><rect id="backgroundrect" width="100%" height="100%" x="0" y="0" fill="none" stroke="none" class="" style=""/>
    
<g class="currentLayer" style=""><title>Layer 1</title><g fill="none" fill-rule="evenodd" opacity=".6" id="svg_1" class="">
        <path fill="#DEE0E6" d="M-38.743479599833485,-5.96046585699117e-8 h115.269 v75.577 H-38.743479599833485 z" id="svg_2"/>
        <path d="M-38.63847959983349,-5.96046585699117e-8 h115.165 l-0.07600000000000012,7.622 c-16.632,7.105 -28.684,11.425 -36.156,12.96 c-20.645,4.242 -40.12,8.183 -49.999,11.977 c-15.242,5.854 -24.921,12.29 -29.039,19.308 l0.10500000000000002,-51.867 z" fill="#C2C6CA" id="svg_3"/>
        <ellipse fill="#868C93" cx="39.73252363502979" cy="36.511996888637526" rx="24.384000778198242" ry="24.45199966430664" id="svg_4"/>
        <path d="M76.5265204001665,35.73199994039534 v39.915 H-38.743479599833485 V63.80899994039534 C-26.901479599833486,51.31199994039534 -15.731479599833492,46.50399994039533 -5.232479599833489,49.38499994039533 c15.937,4.373 22.911,9.448 46.153,-1.901 c15.495,-7.567 27.211,-11.497 35.149,-11.793 l0.457,0.040000000000000105 z" fill="#C2C6CA" id="svg_5"/>
        <path d="M-38.68747959983349,73.85699994039534 c2.564,-6.7170000000000005 6.023,-12.364 10.379,-16.94 c4.355,-4.577 10.025,-7.354 17.012,-8.332 c-6.8580000000000005,-0.4990000000000008 -12.933,1.251 -18.227,5.25 c-5.2940000000000005,3.998 -8.367,5.216 -9.22,3.654 l0.05600000000000011,16.368 z" fill="#606060" id="svg_6"/>
        <path d="M76.5075204001665,35.65599994039533 c-15.282,3.734 -26.225,8.183 -32.828,13.345 c-9.905,7.745 -14.29,19.154 -29.354,20.291 c-15.063,1.137 -13.979,-7.69 -6.086,-11.201 c7.893,-3.511 12.616,-2.8810000000000002 24.787,-7.41 c12.171,-4.53 16.054,-7.847 25.417,-11.178 c6.242,-2.22 12.263,-3.503 18.064,-3.847 z" fill="#5A6169" id="svg_7"/>
    </g></g></svg>