<svg width="138" height="97" viewBox="0 0 138 97" xmlns="http://www.w3.org/2000/svg">
    <g transform="translate(-16 -23)" fill="none" fill-rule="evenodd" opacity=".6">
        <path fill="#DEE0E6" d="M27.032 33.438h115.269v75.577H27.032z"/>
        <path d="M27.137 33.438h115.165l-.076 7.622c-16.632 7.105-28.684 11.425-36.156 12.96-20.645 4.242-40.12 8.183-49.999 11.977-15.242 5.854-24.921 12.29-29.039 19.308l.105-51.867z" fill="#C2C6CA"/>
        <ellipse fill="#868C93" cx="105.508" cy="69.95" rx="24.384" ry="24.452"/>
        <path d="M142.302 69.17v39.915H27.032V97.247C38.874 84.75 50.044 79.942 60.543 82.823c15.937 4.373 22.911 9.448 46.153-1.901 15.495-7.567 27.211-11.497 35.149-11.793l.457.04z" fill="#C2C6CA"/>
        <path d="M27.088 107.295c2.564-6.717 6.023-12.364 10.379-16.94 4.355-4.577 10.025-7.354 17.012-8.332-6.858-.499-12.933 1.251-18.227 5.25-5.294 3.998-8.367 5.216-9.22 3.654l.056 16.368z" fill="#606060"/>
        <path d="M142.283 69.094c-15.282 3.734-26.225 8.183-32.828 13.345-9.905 7.745-14.29 19.154-29.354 20.291-15.063 1.137-13.979-7.69-6.086-11.201 7.893-3.511 12.616-2.881 24.787-7.41 12.171-4.53 16.054-7.847 25.417-11.178 6.242-2.22 12.263-3.503 18.064-3.847z" fill="#5A6169"/>
    </g>
</svg>
