<svg width="141" height="38" viewBox="0 0 141 38" xmlns="http://www.w3.org/2000/svg">
    <g fill="none" fill-rule="evenodd">
        <path d="M38.9 21.928h3.109l3.497-5.979H38.9v.003a8.636 8.636 0 0 0-3.748.933c-1.63.83-3.427 3.29-3.659 3.688a47.485 47.485 0 0 0-.528.879l-.27.46a337.93 337.93 0 0 0-2.567 4.4l-.105.184-.29.508-1.556 2.723.008.003-.42.725c-.929 1.226-2.49 1.956-3.945.927-1.453-1.027-1.3-2.78-.607-4.079l.046-.085c1.334-2.382 2.692-4.751 4.048-7.121l.006.002 1.02-1.783.468-.82h-.01l2.153-3.77c2.168-3.793 2.038-8.723-1.481-11.75C24.883-.244 21.16-.6 18.14.939c-2.099 1.068-3.047 2.645-4.187 4.566a545.461 545.461 0 0 0-1.595 2.712 347.74 347.74 0 0 0-3.367 5.745l-.393.686c-.579.693-1.365 1.194-2.209 1.247v-.003H3.496L0 21.871H6.39v-.003a8.634 8.634 0 0 0 3.748-.934c1.63-.829 2.565-1.965 3.436-3.331.18-.282.356-.573.536-.873l.215-.362.27-.46c.21-.354.418-.71.627-1.064.652-1.11 1.302-2.22 1.94-3.337l.104-.183.29-.508 1.557-2.723-.009-.003.174-.3.061-.1c.889-1.402 2.584-2.343 4.157-1.231 1.453 1.027 1.3 2.78.606 4.079l-.045.084c-1.334 2.383-2.692 4.752-4.048 7.121h.01l-.198.348-.007-.002-.13.227c-1.103 1.933-2.208 3.865-3.312 5.798-2.168 3.793-2.038 8.724 1.481 11.751 2.58 2.22 6.303 2.574 9.323 1.037 1.767-.9 2.72-2.16 3.656-3.683a352.295 352.295 0 0 0 3.368-5.745l.052-.09a316.85 316.85 0 0 0 2.048-3.526l.071-.125.349-.594c.576-.675 1.35-1.162 2.18-1.214v.003zM115.386 26.555a1.68 1.68 0 0 1-1.69 1.668c-.933 0-1.69-.747-1.69-1.668 0-.921.757-1.668 1.69-1.668.934 0 1.69.747 1.69 1.668" fill="#E40050"/>
        <path fill="#1A1A1A" d="M137.617 28.263h3.298V9.578h-3.298zM131.909 21.843v-.052c0-2.223-1.86-3.722-4.059-3.722-2.2 0-3.927 1.474-3.927 3.722v.052c0 2.223 1.754 3.748 3.927 3.748 2.199 0 4.059-1.525 4.059-3.748m-10.5 10.055l1.178-2.352c1.492.905 3.037 1.422 4.923 1.422 2.827 0 4.372-1.422 4.372-4.162v-1.034c-1.152 1.447-2.592 2.482-4.87 2.482-3.273 0-6.284-2.379-6.284-6.385v-.052c0-4.032 3.064-6.41 6.284-6.41 2.33 0 3.77 1.06 4.844 2.326v-2.042h3.168v10.857c0 2.3-.602 4.006-1.754 5.144-1.257 1.24-3.195 1.834-5.682 1.834-2.278 0-4.399-.568-6.179-1.628M49.333 9.488h3.681l5.712 14.376L64.41 9.488h3.6l-7.85 18.84h-2.977zM69.4 28.26h3.33V9.556H69.4zM93.431 9.555h14.049v2.94H96.76v4.863h9.502v2.966H96.76v4.997h10.854v2.94H93.431zM88.02 22.763c0 1.675-1.4 2.552-3.635 2.552H78.89v-5.104h5.252c2.613 0 3.879.93 3.879 2.499v.053zM78.89 12.5h4.768c2.127 0 3.312.904 3.312 2.366v.053c0 1.702-1.427 2.526-3.555 2.526H78.89V12.5zm8.7 6.036c1.4-.718 2.693-1.915 2.693-4.149v-.053c0-1.222-.43-2.26-1.266-3.084-1.077-1.063-2.774-1.648-4.929-1.648h-8.457v18.612h8.727c4.201 0 6.975-1.782 6.975-5.105v-.053c0-2.526-1.535-3.776-3.743-4.52z"/>
    </g>
</svg>
