<svg width="33" height="33" xmlns="http://www.w3.org/2000/svg">
    <g fill="none" fill-rule="evenodd">
        <path d="M28.21 18.225H30.463L33 13.801h-4.79v.003a6.163 6.163 0 0 0-2.719.69c-1.181.614-2.484 2.435-2.653 2.729a33.87 33.87 0 0 0-.227.382l-.156.268-.196.34a251.308 251.308 0 0 0-1.937 3.393l-.21.375-1.129 2.016.006.002-.305.536c-.673.907-1.805 1.448-2.86.686-1.054-.76-.943-2.057-.44-3.018l.033-.063c.967-1.763 1.951-3.516 2.935-5.27l.005.002.739-1.32.34-.606h-.008l1.562-2.789c1.572-2.807 1.478-6.455-1.075-8.695-1.87-1.643-4.57-1.905-6.76-.768-1.522.791-2.21 1.958-3.037 3.38A361.364 361.364 0 0 0 8.961 8.08a261.72 261.72 0 0 0-2.442 4.25l-.284.508c-.42.513-.99.884-1.602.923v-.002H2.535L0 18.183h4.633v-.002a6.162 6.162 0 0 0 2.718-.69c1.182-.614 1.86-1.455 2.492-2.466a25.965 25.965 0 0 0 .544-.914l.197-.34.454-.788c.473-.82.944-1.642 1.407-2.468l.076-.136.21-.376 1.128-2.015-.006-.002.126-.222.045-.074c.644-1.037 1.874-1.734 3.014-.91 1.054.759.942 2.056.44 3.017l-.033.063c-.968 1.763-1.952 3.516-2.936 5.27h.007l-.143.256-.005-.001c-.03.056-.062.112-.094.168l-2.402 4.29c-1.572 2.807-1.478 6.455 1.074 8.695 1.871 1.643 4.57 1.905 6.76.767 1.282-.665 1.973-1.598 2.652-2.725.128-.211.255-.43.385-.654A261.062 261.062 0 0 0 24.8 22.33l.038-.067c.5-.867.996-1.735 1.485-2.608l.052-.093.253-.439c.418-.5.979-.86 1.581-.899v.002z" fill="#E40050"/>
    </g>
</svg>
