<svg width="141" height="38" viewBox="0 0 103 28" xmlns="http://www.w3.org/2000/svg">
  <g fill-rule="nonzero" fill="none">
    <path class="letters" fill="#FFFFFF" d="M46.908 7.056h2.626l-5.747 13.871H41.66L35.912 7.056h2.675l4.169 10.586zM52.966 7.056v13.773h-2.43V7.056zM66.111 10.578c0 1.692-.948 2.558-1.975 3.089 1.62.55 2.746 1.476 2.746 3.365 0 2.479-2.035 3.797-5.115 3.797h-6.4V7.056h6.202c2.785 0 4.542 1.358 4.542 3.522zm-2.43.393c0-1.121-.87-1.77-2.43-1.77h-3.495v3.664h3.315c1.565 0 2.611-.615 2.611-1.894h-.001zm.77 5.805c0-1.18-.928-1.87-2.844-1.87h-3.851v3.784h4.03c1.66-.006 2.666-.655 2.666-1.914h-.001zM78.752 9.22h-7.82v3.581h6.932v2.165h-6.932v3.699h7.913v2.164H68.503V7.056h10.25z"/>
    <path class="icon" d="M28.3 16.195h2.257l2.54-4.39h-4.798a6.247 6.247 0 0 0-2.722.683c-1.184.605-2.487 2.411-2.656 2.703-.076.124-.152.25-.228.379l-.151.266-.196.336a277.202 277.202 0 0 0-1.864 3.225l-.076.135-.212.372-1.13 1.995-.304.531c-.674.9-1.808 1.434-2.863.68-1.056-.754-.945-2.037-.44-2.99.01-.02.02-.042.032-.061.968-1.747 1.954-3.481 2.94-5.219l.741-1.308c.113-.2.227-.4.34-.605h-.008c.522-.92 1.044-1.841 1.564-2.762 1.574-2.78 1.48-6.393-1.075-8.612C18.118-.074 15.414-.333 13.22.796c-1.52.783-2.212 1.939-3.038 3.346a310.042 310.042 0 0 0-1.16 1.988c-.126.21-.253.425-.384.648a393.66 393.66 0 0 0-2.058 3.576l-.286.502c-.42.509-.99.875-1.603.909h-2.1L.05 16.149h4.64a6.215 6.215 0 0 0 2.721-.684c1.183-.605 1.863-1.44 2.495-2.441.13-.208.26-.42.39-.64l.152-.265c.067-.112.13-.226.197-.338l.456-.78c.474-.813.944-1.628 1.408-2.445l.078-.135.21-.37 1.131-1.997c.043-.073.085-.151.126-.22l.044-.072c.646-1.028 1.877-1.718 3.02-.908 1.062.757.942 2.037.44 2.989l-.034.062c-.968 1.745-1.953 3.481-2.94 5.219-.048.084-.097.17-.153.254l-.093.166-2.406 4.25c-1.574 2.78-1.48 6.393 1.076 8.612 1.873 1.626 4.577 1.886 6.77.757 1.283-.66 1.974-1.583 2.655-2.7.127-.209.255-.425.386-.648.693-1.182 1.38-2.37 2.06-3.561l.037-.067a314.805 314.805 0 0 0 1.54-2.676l.252-.434c.419-.496.981-.852 1.584-.89l.006.008z" fill="#E40050"/>
    <path class="dot" d="M85.056 19.583c0 .676-.55 1.223-1.228 1.223a1.225 1.225 0 0 1-1.227-1.223 1.228 1.228 0 1 1 2.096-.865c.23.23.359.54.359.865z" fill="#E40050"/>
    <path class="letters" fill="#FFFFFF" d="M100.591 7.141h2.396v13.694h-2.396zM88.822 23.499l.855-1.724a6.582 6.582 0 0 0 3.574 1.041c2.053 0 3.176-1.041 3.176-3.05v-.756c-.838 1.06-1.883 1.816-3.537 1.816-2.378 0-4.558-1.744-4.558-4.68v-.038c0-2.954 2.226-4.692 4.558-4.692 1.692 0 2.734.777 3.517 1.705v-1.497h2.301v7.956c0 1.686-.437 2.937-1.274 3.77-.912.909-2.32 1.344-4.126 1.344a8.67 8.67 0 0 1-4.486-1.195zm7.624-7.37v-.037c0-1.63-1.35-2.725-2.947-2.725s-2.853 1.08-2.853 2.725v.038c0 1.628 1.273 2.747 2.853 2.747 1.58 0 2.947-1.119 2.947-2.747z"/>
  </g>
</svg>
