<svg width="44" height="44" xmlns="http://www.w3.org/2000/svg">
    <g fill-rule="nonzero" fill="#000">
        <path d="M22 43C10.42 43 1 33.58 1 22S10.42 1 22 1s21 9.42 21 21-9.42 21-21 21zm0-38.333C12.444 4.667 4.667 12.444 4.667 22c0 9.556 7.777 17.333 17.333 17.333 9.556 0 17.333-7.777 17.333-17.333 0-9.556-7.777-17.333-17.333-17.333z" stroke="#FFF" stroke-width="2"/>
        <path d="M16 18c-1.103 0-2-.897-2-2s.897-2 2-2 2 .897 2 2-.897 2-2 2zm0-2.667a.667.667 0 1 0 0 1.334.667.667 0 0 0 0-1.334zM28 18c-1.103 0-2-.897-2-2s.897-2 2-2 2 .897 2 2-.897 2-2 2zm0-2.667a.667.667 0 1 0 0 1.334.667.667 0 0 0 0-1.334zM22 32c-4.007 0-7.696-1.812-9.867-4.844-.25-.348-.138-.813.253-1.036.386-.225.907-.123 1.157.226 1.863 2.6 5.025 4.154 8.457 4.154 3.433 0 6.594-1.553 8.458-4.154.25-.348.767-.451 1.157-.226.388.223.502.686.253 1.036C29.696 30.188 26.008 32 22 32z"/>
    </g>
</svg>
